<svg width="23" height="19" viewBox="0 0 23 19" fill="none" xmlns="http://www.w3.org/2000/svg">
<path d="M22.2546 1.54818L0.031822 1.37616C-0.00640462 5.734 -0.00926666 16.8235 0.0824773 17.374C0.174221 17.9245 0.655877 18.1385 0.885237 18.1768H19.2914H22.273C22.9153 18.1768 22.9993 17.6416 22.9611 17.374C22.8847 12.5957 23 2.84278 23 2.63764C23 2.46562 22.8854 1.94956 22.2546 1.54818Z" fill="url(#paint0_linear)"/>
<path d="M0 3.49774V0.917439C0 0.642208 0.496946 0.191133 0.74542 0H9.05971L11.0093 1.7202L9.05971 3.49774H0Z" fill="#D79300"/>
<path d="M7.62618 18.6928H3.32568C3.42125 16.1508 3.50439 10.9833 3.50439 10.5506C3.50439 10.1492 3.79109 9.28908 4.6445 9.05972C8.81121 9.02149 17.2708 8.96798 17.7754 9.05972C18.2799 9.15146 18.9862 9.86248 19.1515 10.3212V18.6928H14.679V13.2455H7.62618V18.6928Z" fill="#3A96DD"/>
<defs>
<linearGradient id="paint0_linear" x1="0.00671389" y1="17.546" x2="23.0574" y2="2.2936" gradientUnits="userSpaceOnUse">
<stop stop-color="#F9CB4C"/>
<stop offset="1" stop-color="#FFD96A"/>
</linearGradient>
</defs>
</svg>
