<svg width="20" height="20" viewBox="0 0 20 20" fill="none" xmlns="http://www.w3.org/2000/svg">
<path d="M18.9944 7.924L17.0794 7.54024C16.9831 7.26335 16.8694 6.99459 16.7438 6.73459L17.8287 5.10704C18.1594 4.61139 18.0937 3.95075 17.6725 3.53011L16.47 2.32757C16.2281 2.08569 15.9088 1.96131 15.585 1.96131C15.3456 1.96131 15.1038 2.03006 14.8931 2.17132L13.2656 3.25573C13.0044 3.12947 12.7356 3.01697 12.4588 2.92072L12.075 1.00503C11.9587 0.420013 11.445 0 10.8494 0H9.14937C8.55375 0 8.04063 0.420638 7.92375 1.00503L7.54 2.92072C7.26313 3.01697 6.99437 3.1301 6.73437 3.25573L5.1075 2.17132C4.89562 2.03006 4.65438 1.96131 4.41438 1.96131C4.09125 1.96131 3.77187 2.08569 3.53 2.32757L2.32812 3.53011C1.90687 3.95137 1.84125 4.61139 2.17187 5.10704L3.25625 6.73459C3.13 6.99522 3.0175 7.26398 2.92125 7.54086L1.005 7.924C0.420625 8.04088 0 8.55402 0 9.14966V10.8497C0 11.4454 0.420625 11.9591 1.005 12.0754L2.92062 12.4598C3.01687 12.7366 3.13 13.0054 3.25563 13.2654L2.17187 14.893C1.84125 15.3886 1.90687 16.0493 2.32812 16.4699L3.53063 17.6724C3.7725 17.9143 4.09188 18.0387 4.415 18.0387C4.655 18.0387 4.89687 17.9693 5.1075 17.8287L6.735 16.7436C6.99563 16.8705 7.26437 16.983 7.54125 17.0793L7.92437 18.9943C8.04125 19.5794 8.55438 20 9.15 20H10.85C11.4456 20 11.9594 19.5787 12.0756 18.9943L12.46 17.0793C12.7369 16.983 13.0056 16.8693 13.2656 16.7436L14.8931 17.8287C15.1044 17.9693 15.3463 18.0387 15.585 18.0387C15.9088 18.0387 16.2281 17.9143 16.47 17.6724L17.6725 16.4699C18.0937 16.0486 18.1594 15.3886 17.8287 14.893L16.7438 13.2654C16.8706 13.0042 16.9831 12.7354 17.0794 12.4585L18.9944 12.0754C19.5788 11.9597 20 11.4454 20 10.8497V9.14966C20 8.55402 19.5788 8.04088 18.9944 7.924ZM16.8338 11.2335C16.3994 11.3204 16.0437 11.6304 15.8987 12.0491C15.8181 12.2798 15.7244 12.5035 15.6194 12.7204C15.425 13.1198 15.4581 13.591 15.7037 13.9592L16.7887 15.5867L15.5862 16.7893L13.9587 15.7042C13.75 15.5649 13.5081 15.4942 13.2656 15.4942C13.08 15.4942 12.8931 15.5355 12.7213 15.6186C12.5038 15.7236 12.2806 15.8186 12.0487 15.8992C11.6312 16.0443 11.3213 16.3999 11.2344 16.8343L10.85 18.7506H9.15L8.76688 16.8343C8.68 16.3999 8.37 16.0443 7.95187 15.8992C7.72125 15.8186 7.49687 15.7249 7.28 15.6199C7.1075 15.5355 6.92125 15.4942 6.735 15.4942C6.49188 15.4942 6.25062 15.5649 6.04187 15.7042L4.41438 16.7893L3.21187 15.5867L4.29625 13.9592C4.54188 13.5904 4.57375 13.1192 4.38188 12.7216C4.27688 12.5041 4.1825 12.281 4.10188 12.0491C3.95688 11.6316 3.60062 11.3216 3.16687 11.2347L1.25125 10.8503L1.25 9.14966L3.16625 8.76652C3.6 8.67965 3.95625 8.36964 4.10125 7.9515C4.18187 7.72087 4.275 7.49648 4.38062 7.2796C4.57437 6.88084 4.54188 6.40958 4.29563 6.04144L3.21187 4.41389L4.41375 3.21135L6.04125 4.29576C6.25 4.43514 6.49187 4.50577 6.73437 4.50577C6.92 4.50577 7.10625 4.46451 7.27875 4.38139C7.49562 4.27638 7.71937 4.18201 7.95062 4.10138C8.36875 3.95637 8.67875 3.60011 8.76562 3.16635L9.14937 1.25066L10.8494 1.25004L11.2325 3.16635C11.3194 3.60011 11.6294 3.95637 12.0481 4.10138C12.2788 4.18201 12.5025 4.27513 12.7194 4.38076C12.8925 4.46451 13.0781 4.50577 13.265 4.50577C13.5081 4.50577 13.7494 4.43514 13.9581 4.29576L15.5856 3.21135L16.7881 4.41389L15.7031 6.04144C15.4575 6.4102 15.4263 6.88084 15.6175 7.27898C15.7225 7.49586 15.8175 7.71962 15.8981 7.95087C16.0431 8.36901 16.3988 8.67902 16.8331 8.7659L18.7481 9.14966L18.75 10.8497L16.8338 11.2335Z" fill="white"/>
<path d="M10 5.62455C7.58437 5.62455 5.625 7.58399 5.625 9.99969C5.625 12.416 7.58437 14.3748 10 14.3748C12.4156 14.3748 14.375 12.4154 14.375 9.99969C14.375 7.58399 12.4156 5.62455 10 5.62455ZM10 13.8286C7.88625 13.8286 6.17188 12.1135 6.17188 10.0003C6.17188 7.8865 7.88625 6.17207 10 6.17207C12.1131 6.17207 13.8281 7.8865 13.8281 10.0003C13.8281 12.1135 12.1131 13.8286 10 13.8286Z" fill="white"/>
<path d="M10 7.49961C8.61875 7.49961 7.5 8.61839 7.5 9.99969C7.5 11.3804 8.61875 12.4998 10 12.4998C11.3806 12.4998 12.5 11.3804 12.5 9.99969C12.5 8.61902 11.3806 7.49961 10 7.49961ZM10 11.8754C8.965 11.8754 8.125 11.0353 8.125 10.0003C8.125 8.96528 8.965 8.12525 10 8.12525C11.035 8.12525 11.875 8.96528 11.875 10.0003C11.875 11.0353 11.035 11.8754 10 11.8754Z" fill="white"/>
</svg>
