<svg width="22" height="22" viewBox="0 0 22 22" fill="none" xmlns="http://www.w3.org/2000/svg">
<path d="M11.2611 1C11.5936 1 11.7361 1.1222 11.7361 1.1222V8.78004C11.7361 8.82077 11.5461 8.94297 11.2611 8.94297H11.2136C10.9286 8.94297 10.786 8.82077 10.7385 8.82077V1.1222C10.786 1.08147 10.9761 1 11.2611 1Z" fill="white" stroke="white" stroke-miterlimit="10"/>
<path d="M11.0236 21C5.51298 21 1 17.1303 1 12.4053C1 9.02444 3.04272 6.09165 6.32057 4.66599C6.36807 4.66599 6.41558 4.62526 6.46308 4.62526C6.51059 4.62526 6.51059 4.62526 6.55809 4.62526C6.6531 4.66599 6.70061 4.70672 6.74811 4.78819C6.79562 4.86965 6.79562 4.95112 6.74811 4.99185C6.70061 5.07332 6.6531 5.11405 6.55809 5.15479C3.51777 6.45825 1.61757 9.22811 1.61757 12.3646C1.61757 16.8045 5.79801 20.389 10.9761 20.389C16.1541 20.389 20.3346 16.8045 20.3346 12.3646C20.3346 9.22811 18.4344 6.49898 15.4415 5.15479C15.299 5.07332 15.204 4.91039 15.299 4.78819C15.394 4.66599 15.5841 4.58452 15.7266 4.66599C18.9569 6.09165 20.9996 9.02444 20.9996 12.3646C21.0471 17.1711 16.5342 21 11.0236 21Z" fill="white" stroke="white" stroke-miterlimit="10"/>
</svg>
