<svg width="20" height="20" viewBox="0 0 20 20" fill="none" xmlns="http://www.w3.org/2000/svg">
<path d="M20 10C20 4.48608 15.5143 0 10 0C4.48568 0 0 4.48608 0 10C0 12.8197 1.17767 15.3655 3.06137 17.1852C3.10547 17.2426 3.1577 17.2892 3.21884 17.3284C5.0032 18.9808 7.3819 20 10 20C12.6181 20 14.9968 18.9808 16.7812 17.3284C16.8423 17.2892 16.8945 17.2426 16.9386 17.1852C18.8223 15.3655 20 12.8197 20 10ZM10 1.25C14.825 1.25 18.75 5.17537 18.75 10C18.75 12.0458 18.0389 13.9257 16.8581 15.4174C16.316 13.6692 14.7684 12.3006 12.668 11.6709C13.8127 10.8425 14.5614 9.50038 14.5614 7.98381C14.5614 5.47201 12.5155 3.42855 10 3.42855C7.48454 3.42855 5.43864 5.47201 5.43864 7.98381C5.43864 9.50038 6.18734 10.8425 7.332 11.6709C5.23158 12.3006 3.68398 13.6692 3.14189 15.4174C1.96106 13.9257 1.25 12.0458 1.25 10C1.25 5.17537 5.17497 1.25 10 1.25ZM6.68864 7.98381C6.68864 6.1613 8.17383 4.67855 10 4.67855C11.8262 4.67855 13.3114 6.1613 13.3114 7.98381C13.3114 9.80631 11.8262 11.2891 10 11.2891C8.17383 11.2891 6.68864 9.80631 6.68864 7.98381ZM4.1923 16.5266C4.38019 14.235 6.8103 12.5391 10 12.5391C13.1897 12.5391 15.6198 14.235 15.8077 16.5266C14.2609 17.9046 12.2298 18.75 10 18.75C7.77023 18.75 5.73908 17.9046 4.1923 16.5266Z" fill="white"/>
</svg>
